**ABCDEFGHIJKLMNOPQRSTUVWXYZabcdefghijklmnopqrstuvwxyz**************************
**PARASOLID !"#$%&'()*+,-./:;<=>?@[\]^_`{|}~0123456789**************************
**PART1;
MC=GMC-ACUR-01;
MC_MODEL=unknown;
MC_ID=unknown;
OS=Windows NT;
OS_RELEASE=6.1;
FRU=Unigraphics Solutions;
APPL=SolidEdge;
SITE=Huntsville, AL;
USER=alain
FORMAT=text;
GUISE=transmit;
KEY=E:\Mes documents\Cours\GMC18750(GMC-4200)\Projets_labo\LaboCFAO\Guide MCam\MasterCam 2017\Dessin_fichiers MCAM pratique\Tournage\Aérateur;
FILE=E:\Mes documents\Cours\GMC18750(GMC-4200)\Projets_labo\LaboCFAO\Guide MCam\MasterCam 2017\Dessin_fichiers MCAM pratique\Tournage\Aérateur.x_t;
DATE=jeu., janv. 11 18;
**PART2;
SCH=SCH_1500204_15003;
USFLD_SIZE=0;
**PART3;
**END_OF_HEADER*****************************************************************
T51 : TRANSMIT FILE created by modeller version 150020423 SCH_1500204_15003_1300
6185 0 12 255 1 711 2 3 0 0 0 0 1e3 1e-8 0 0 0 1 0 1 1 4 5 6 7 8 9 10 81 255 3 2
 658 11 1 12 0 12 0 13 14 15 70 11 CI9 list_type0 0 1 uI10 notransmit0 0 1 lCCCD
CCDI12 finger_index0 0 1 dI12 finger_block1012 0 CZ3 0 4 T1 0 0 12 20 1 16 16 13
 255 4 3 0 1 0 17 0 0 18 0 50 255 5 154 0 17 19 0 0 +-.0206433519553073 0 0 -1 0
 0 0 0 1 31 255 6 632 0 9 20 0 0 --.0176433519553073 0 0 -1 0 0 0 0 1 .02 29 255
 7 518 0 10 21 0 .0263566480446927 -.003708099243547835 .0025 19 255 8 81 0 1 18
 0 22 V16 255 9 629 0 ?23 0 24 6 0 0 1 18 255 10 516 0 25 0 26 7 ?1 17 255 25 0
 27 28 29 10 30 31 0 32 -18 26 240 0 33 10 34 21 ?1 17 33 0 35 36 37 26 38 39 0
 40 +18 34 339 0 41 26 42 43 ?1 29 21 241 0 26 43 7 .0373566480446927 .014142135
62373094 -.005 29 43 418 0 34 44 21 .03235664804469275 -.0193649167310371 -.005
 29 44 419 0 42 45 43 .03235664804469275 .0193649167310371 -.005 18 42 329 0 37
 34 46 44 ?1 29 45 420 0 46 47 44 .0373566480446927 -.01414213562373094 -.005 18
 46 340 0 36 42 48 45 ?1 29 47 423 0 48 49 45 .01235664804469272 -.0193649167310
371 -.005 18 48 334 0 50 46 51 47 ?1 29 49 424 0 51 52 47 .01235664804469272 .01
93649167310371 -.005 18 51 328 0 53 48 54 49 ?1 29 52 605 0 54 55 49 .0233566480
446927 .003708099243547835 .0025 18 54 554 0 56 51 57 52 ?1 29 55 606 0 57 58 52
 .0233566480446927 -.003708099243547835 .0025 18 57 553 0 29 54 59 55 ?1 29 58 6
08 0 59 0 55 .0263566480446927 .003708099243547835 .0025 18 59 552 0 28 57 0 58
 ?1 17 28 0 27 60 25 59 61 62 0 63 -15 255 27 573 0 25 64 0 17 60 0 27 29 28 54
 63 65 0 66 -17 61 0 67 68 69 10 28 62 0 0 +16 62 517 0 ?61 70 71 72 0 0 1 17 63
 0 73 56 56 59 60 65 0 69 +15 73 560 0 63 74 0 17 56 0 73 63 63 54 69 75 0 60 -1
6 65 548 0 ?63 31 76 77 31 31 1 17 69 0 67 61 66 59 56 75 0 0 +15 67 514 0 68 78
 79 17 66 0 67 69 68 54 29 80 0 0 +16 75 525 0 ?69 80 70 81 0 0 1 16 80 528 0 ?6
6 24 75 82 0 0 1 16 70 521 0 ?68 75 62 83 0 0 1 30 255 81 527 0 75 83 82 0 -.037
3566480446927 .003708099243547835 .0025 -1 0 0 30 83 523 0 70 72 81 0 +.03735664
80446927 -.003708099243547835 .0025 -1 0 0 32 255 82 530 0 80 81 20 0 -.02485664
80446927 0 .004 -.707106781186548 0 .707106781186548 -.707106781186548 0 -.70710
6781186548 .00565685424949238 .004 31 20 625 0 24 82 6 0 +-.0206433519553073 0 0
 -1 0 0 0 0 1 .017 16 24 622 0 ?84 9 80 20 0 0 1 17 84 0 85 84 84 0 86 24 0 0 +1
5 85 623 0 84 17 87 17 86 0 88 86 86 0 84 24 0 0 -15 88 647 0 86 89 0 14 255 89
 645 90 ?0 64 91 4 92 +0 0 0 64 22 81 2 90 711 93 89 94 0 95 0 96 0 14 64 591 95
 ?89 97 98 4 99 -0 0 89 97 22 15 91 646 0 100 89 88 52 255 92 652 0 89 0 101 0 +
-.0206433519553073 0 0 1 0 0 .017 .707106781186547 .707106781186548 0 0 -1 13 22
 80 0 0 0 0 0 0 8 17 14 17 138 102 ?103 0 85 4 5 +0 0 103 0 22 81 2 102 666 93 1
7 104 0 0 105 106 0 14 103 133 105 ?107 17 108 4 19 +0 0 107 17 22 81 2 105 669
 93 103 109 0 102 110 111 0 14 107 128 110 ?112 103 113 4 114 +0 0 112 103 22 15
 108 630 0 23 103 115 51 255 19 153 0 103 114 5 0 +.057 0 0 -1 0 0 .02 0 0 1 50
 114 152 0 107 116 19 0 +-.00214335195530728 .0169980784421604 0 1 0 0 0 0 -1 51
 116 151 0 112 117 114 0 +.057 0 0 -1 0 0 .0169980784421604 0 0 1 14 112 123 118
 ?119 107 120 4 116 +0 0 119 107 22 50 117 149 0 119 121 116 0 +.004356648044692
72 .02 0 -1 0 0 0 0 1 14 119 113 122 ?123 112 124 4 117 +0 0 123 112 22 51 121 1
48 0 123 125 117 0 +.057 0 0 -1 0 0 .023 0 0 1 14 123 108 126 ?127 119 128 4 121
 +0 0 127 119 22 50 125 147 0 127 129 121 0 +.01235664804469272 .023 0 1 0 0 0 0
 -1 14 127 103 130 ?131 123 132 4 125 +0 0 131 123 22 51 129 146 0 131 133 125 0
 +.057 0 0 -1 0 0 .02 0 0 1 14 131 98 134 ?135 127 136 4 129 +0 0 135 127 22 54
 255 133 145 0 135 137 129 138 +.03235664804469275 0 0 -1 0 0 .015 .005 0 0 1 14
 135 93 139 ?140 131 141 4 133 +0 0 140 131 22 50 137 144 0 140 142 133 0 +.0373
566480446927 .015 0 1 0 0 0 0 -1 141 255 138 143 144 144 133 38 255 143 405 0 39
 145 146 0 +133 142 147 148 148 141 144 146 138 138 133 38 146 404 0 149 143 150
 0 +133 142 151 152 152 16 149 296 0 ?41 153 39 146 0 0 1 30 150 403 0 153 146 1
54 0 +.057 -.0193649167310371 -.005 -1 0 0 50 142 399 0 155 156 137 157 +.012356
64804469272 .0396603351955307 -.005 0 0 1 1 0 0 40 255 20 151 0 1 20 .0003647749
002541745 .385026694768497 ??.034822778836998 -.01869233443809555 -.005 .0332932
316986726 -.01927349854958525 -.005 .0316569231837282 -.0193140953061942 -.005 .
0301093857866375 -.01881343803613745 -.005 .0288020315042881 -.0178284921597904
 -.005 .027861149910091 -.01644542809772045 -.005 .02739277971418675 -.014777019
02043254 -.005 .02747985318496025 -.01296623680537662 -.005 .02817099632998575 -
.01119954464339104 -.005 .029439060749584 -.00972998433981796 -.005 .03108002775
02636 -.00885109656601175 -.005 .0327107643439746 -.00867474896674722 -.005 .034
13786851823285 -.0090370523035563 -.005 .03540877857117315 -.00984243454394539 -
.005 .0364933148187421 -.01111896135510762 -.005 .03720407270911045 -.0128347122
590937 -.005 .0373212384553291 -.0147706802466352 -.005 .03677919286678895 -.016
59576984080835 -.005 .0356902432244584 -.0180467037288974 -.005 .034822778836998
 -.01869233443809555 -.005 41 255 1 152 H.034822778836998 -.01869233443809555 -.
005 14 155 387 158 ?78 140 159 4 142 -0 0 78 140 22 51 156 499 0 78 99 142 0 +.0
373566480446927 0 .004 -1 0 0 .004 0 0 -1 141 157 143 160 160 142 141 160 146 15
7 157 142 14 78 489 161 ?74 155 67 4 156 -0 0 74 155 22 51 99 600 0 64 101 156 0
 +.0248566480446927 0 -.005 0 0 1 .004 0 1 0 50 101 601 0 74 92 99 0 +.024856648
0446927 0 .0025 0 0 1 1 0 0 14 74 556 162 ?97 78 73 4 101 -97 97 97 78 22 81 2 1
62 702 93 74 163 0 161 164 165 0 14 97 581 164 ?64 74 166 4 101 -74 74 64 74 22
 81 2 164 705 93 97 167 0 162 95 168 0 15 166 565 0 30 97 0 17 30 0 166 32 32 57
 25 31 0 68 +17 32 0 166 30 30 10 68 70 0 61 -16 31 551 0 ?30 169 65 77 65 65 1
 17 68 0 67 66 61 57 32 70 0 0 +16 169 470 0 ?170 171 31 172 0 0 1 31 77 603 0 6
5 173 172 0 +.0248566480446927 0 .0025 0 0 -1 0 1 0 .004 31 173 604 0 76 0 77 0
 +.0248566480446927 0 -.005 0 0 1 0 1 0 .004 31 172 504 0 169 77 174 0 +.0373566
480446927 0 .004 -1 0 0 0 0 -1 .004 31 174 502 0 171 172 145 0 +-.02064335195530
73 0 .004 -1 0 0 0 0 1 .004 16 171 469 0 ?175 176 169 174 0 0 1 30 145 417 0 176
 174 143 0 +.01235664804469272 .0396603351955307 -.005 0 -1 0 16 176 313 177 ?17
8 39 171 145 0 0 1 81 1 177 324 179 176 0 0 0 0 180 17 178 0 132 181 181 48 53 1
76 0 182 +16 39 294 0 ?33 149 176 143 0 0 1 15 132 445 0 181 127 183 17 181 0 13
2 178 178 51 182 184 0 0 +17 53 0 35 37 50 51 178 176 0 185 -17 182 0 136 186 18
5 48 181 184 0 0 -15 136 269 0 185 131 0 17 186 0 136 187 182 34 50 153 0 188 -1
7 185 0 136 182 187 51 37 189 0 181 -16 184 95 0 ?181 190 191 192 0 0 1 16 190 1
00 0 ?193 194 184 195 0 0 1 16 191 90 0 ?187 184 196 197 0 0 1 31 192 157 0 184
 197 195 0 +.01235664804469272 0 0 -1 0 0 0 0 1 .02 31 197 156 0 191 198 192 0 +
.03235664804469275 0 0 -1 0 0 0 0 1 .02 31 195 158 0 190 192 199 0 +.01235664804
469272 0 0 -1 0 0 0 0 1 .023 31 199 159 0 194 195 200 0 +.00435664804469272 0 0
 -1 0 0 0 0 1 .023 16 194 105 0 ?201 202 190 199 0 0 1 31 200 161 0 202 199 203
 0 +.00435664804469272 0 0 -1 0 0 0 0 1 .0169980784421604 16 202 115 0 ?204 205
 194 200 0 0 1 31 203 162 0 205 200 206 0 +-.00214335195530728 0 0 -1 0 0 0 0 1
 .0169980784421604 16 205 120 0 ?207 208 202 203 0 0 1 31 206 163 0 208 203 209
 0 +-.00214335195530728 0 0 -1 0 0 0 0 1 .02 16 208 125 0 ?210 71 205 206 0 0 1
 30 209 247 0 71 206 72 0 +.0373566480446927 .015 -.005 0 -1 0 16 71 245 0 ?36 6
2 208 209 0 0 1 32 72 519 0 62 209 83 0 +.0248566480446927 0 .004 -.707106781186
548 0 -.707106781186548 -.707106781186548 0 .707106781186548 .00565685424949238
 .004 17 36 0 35 41 33 46 40 71 0 211 +15 35 391 0 37 155 0 17 41 0 35 50 36 34
 211 149 0 186 +17 40 0 212 213 213 26 36 71 0 214 -17 211 0 141 214 188 46 41 1
49 0 213 -15 141 258 0 211 135 0 17 214 0 141 38 211 26 213 196 0 0 +17 188 0 14
1 211 38 34 187 191 0 0 -17 213 0 212 40 40 46 214 196 0 0 -15 212 246 0 40 140
 0 16 196 85 0 ?214 191 189 198 0 0 1 16 189 293 0 ?37 196 153 154 0 0 1 31 198
 155 0 196 154 197 0 +.0373566480446927 0 0 -1 0 0 0 0 1 .015 30 154 402 0 189 1
50 198 0 -.057 .0193649167310371 -.005 -1 0 0 17 37 0 35 33 53 42 185 189 0 38 +
16 153 297 0 ?50 189 149 150 0 0 1 17 50 0 35 53 41 48 186 153 0 178 +17 38 0 14
1 188 214 42 33 39 0 187 -17 187 0 136 185 186 42 188 191 0 0 +14 140 88 215 ?15
5 135 216 4 137 +0 0 155 135 22 81 2 215 693 93 140 217 0 139 158 218 0 15 216 4
56 0 170 140 212 17 170 0 216 170 170 0 219 169 0 0 +17 219 0 220 219 219 0 170
 169 0 0 -15 220 496 0 219 78 0 80 255 2 93 221 222 8014 0 0 0 0 3 5 0 0 0 FFFFT
FFFFFFFFF2 1 81 1 217 692 223 140 224 215 225 226 227 81 2 139 690 93 135 225 0
 134 215 228 0 81 2 158 696 93 155 226 0 215 161 229 0 83 255 1 218 .05000000074
50581 81 1 226 695 223 155 230 158 217 231 232 81 2 161 699 93 78 231 0 158 162
 233 0 83 1 229 .0500000007450581 81 1 231 698 223 78 234 161 226 163 235 83 1 2
33 .0500000007450581 80 1 223 93 236 8015 0 0 0 0 3 5 0 0 0 FFFFTFFFFFFFFF2 81 1
 234 697 237 78 238 231 230 239 240 81 1 163 701 223 74 239 162 231 167 241 83 1
 235 0 81 1 239 700 237 74 242 163 234 243 244 81 1 167 704 223 97 243 164 163 2
45 246 83 1 241 0 81 1 243 703 237 97 247 167 239 248 249 81 1 245 707 223 64 24
8 95 167 94 250 83 1 246 0 81 1 248 706 237 64 251 245 243 252 253 81 2 95 708 9
3 64 245 0 164 90 254 0 81 1 94 710 223 89 252 90 245 0 255 83 1 250 0 81 1 252
 709 237 89 256 94 248 0 257 83 1 255 0 80 1 237 0 258 8001 0 0 0 0 3 5 0 0 0 FF
FFTFTFFFFFFF2 81 1 256 661 259 89 260 252 261 0 0 83 3 257 .3960784673690795 .94
1176533699036 .450980424880981 80 1 259 179 262 9000 1 1 1 1 1 1 1 1 0 FFFFTFTTF
FFFFF1 81 1 260 654 263 89 264 256 265 0 266 81 1 261 660 259 103 267 268 269 25
6 0 81 1 267 239 263 103 270 261 271 272 273 81 1 268 663 274 103 261 275 0 0 27
6 81 1 269 659 259 17 271 277 251 261 0 81 1 271 210 263 17 278 269 279 267 280
 81 1 277 664 237 17 269 104 0 275 281 81 1 251 619 259 64 282 248 247 269 0 81
 5 282 611 283 64 265 251 284 0 285 286 287 0 288 81 1 247 618 259 97 289 243 24
2 251 0 81 3 289 562 290 97 291 247 292 293 294 295 0 81 1 242 617 259 74 292 23
9 238 247 0 81 3 292 557 290 74 296 242 297 289 298 299 0 81 1 238 616 259 78 28
4 234 300 242 0 81 5 284 506 283 78 301 238 0 282 302 303 304 0 305 81 1 300 615
 259 155 272 230 306 238 0 81 1 272 388 263 155 307 300 267 308 309 81 1 230 694
 237 155 300 226 224 234 310 81 1 306 511 259 140 311 224 312 300 0 81 1 311 169
 263 140 313 306 0 314 315 81 1 224 691 237 140 306 217 316 230 317 81 1 312 451
 259 135 314 316 318 306 0 81 1 314 173 263 135 319 312 311 320 321 81 1 316 688
 237 135 312 225 322 224 323 81 1 318 450 259 131 320 322 324 312 0 81 1 320 177
 263 131 325 318 314 326 327 81 1 322 685 237 131 318 328 329 316 330 81 1 324 4
49 259 127 308 329 331 318 0 81 1 308 444 263 127 332 324 272 301 333 81 1 329 6
82 237 127 324 334 335 322 336 81 1 331 448 259 123 337 335 338 324 0 81 1 337 1
85 263 123 339 331 326 340 341 81 1 335 679 237 123 331 342 343 329 344 81 1 338
 230 259 119 345 343 346 331 0 81 3 345 212 290 119 340 338 278 307 347 348 0 81
 1 343 676 237 119 338 349 350 335 351 81 1 346 229 259 112 352 350 353 338 0 81
 1 352 198 263 112 354 346 340 355 356 81 1 350 673 237 112 346 357 358 343 359
 81 1 353 228 259 107 355 358 0 346 0 81 1 355 202 263 107 360 353 352 279 361 8
1 1 358 670 237 107 353 362 275 350 363 81 1 362 671 223 107 358 110 109 357 364
 81 1 275 667 237 103 268 109 277 358 365 83 3 363 .3960784673690795 .9411765336
99036 .450980424880981 81 1 109 668 223 103 275 105 104 362 366 83 3 365 .396078
4673690795 .941176533699036 .450980424880981 81 1 104 665 223 17 277 102 0 109 3
67 83 1 366 0 83 1 367 0 81 2 110 672 93 107 362 0 105 118 368 0 81 1 357 674 22
3 112 350 118 362 349 369 83 1 364 0 81 2 118 675 93 112 357 0 110 122 370 0 81
 1 349 677 223 119 343 122 357 342 371 83 1 369 0 81 2 122 678 93 119 349 0 118
 126 372 0 81 1 342 680 223 123 335 126 349 334 373 83 1 371 0 81 2 126 681 93 1
23 342 0 122 130 374 0 81 1 334 683 223 127 329 130 342 328 375 83 1 373 0 81 2
 130 684 93 127 334 0 126 134 376 0 81 1 328 686 223 131 322 134 334 225 377 83
 1 375 0 81 2 134 687 93 131 328 0 130 139 378 0 81 1 225 689 223 135 316 139 32
8 217 379 83 1 377 0 83 1 379 0 83 1 378 .0500000007450581 83 1 376 .05000000074
50581 83 1 374 .0500000007450581 83 1 372 .0500000007450581 83 1 370 .0500000007
450581 83 1 368 .0500000007450581 80 1 263 380 381 9000 0 0 0 0 3 6 0 0 0 FFFFTF
FFFFFFFF1 81 3 360 199 290 107 0 355 354 382 383 384 0 81 1 279 206 263 103 382
 270 355 271 385 82 255 1 361 1319 81 3 382 203 290 103 0 279 360 278 386 387 0
 81 5 270 237 388 103 279 267 0 0 389 390 391 392 393 82 1 385 1319 80 5 388 283
 394 9000 2 2 2 2 3 5 0 0 0 FFFFTFFFFFFFFF1 1 2 3 7 82 1 389 5 82 19 390 5 1 1 3
 1 1 3 0 1 0 1 1 2 1 1 133 0 0 0 83 20 391 .036752 .0127 .0127 82 .0127 .0127 0
 .0185 0 0 40 36.752 36.752 .05 0 0 0 .04363323129985825 .1 .1 84 255 3 392 M408
7 255 2 393 -.0206433519553073 0 0 0 0 1 79 255 28 394 SolidEdge/EndHoleThread_i
nfo80 3 290 395 396 9000 0 0 0 0 3 6 0 0 0 FFFFTFTTFFFFFF1 1 3 81 3 278 207 290
 17 0 271 382 345 397 398 0 82 1 386 0 82 1 387 6 82 1 397 0 82 1 398 7 79 27 39
6 MONIKER/MONIKER_DATA_ATTRIB81 3 354 195 290 112 0 352 399 360 400 401 0 82 1 3
83 1 82 1 384 9 81 3 399 186 290 119 0 340 339 354 402 403 0 82 1 400 1 82 1 401
 8 81 1 340 189 263 119 399 345 337 352 404 81 3 339 182 290 123 0 337 405 399 4
06 407 0 82 1 402 0 82 1 403 5 81 3 405 178 290 127 0 326 325 339 408 409 0 82 1
 406 0 82 1 407 4 81 1 326 181 263 127 405 332 320 337 410 81 3 325 174 290 131
 0 320 319 405 411 412 0 82 1 408 0 82 1 409 3 81 3 319 170 290 135 0 314 313 32
5 413 414 0 82 1 411 0 82 1 412 2 81 3 313 165 290 140 0 311 0 319 415 416 0 82
 1 413 0 82 1 414 1 82 1 415 0 82 1 416 0 81 3 332 441 290 127 326 308 307 297 4
17 418 0 82 1 410 1319 81 3 307 390 290 155 0 272 345 332 419 420 0 81 3 297 494
 290 78 0 301 332 292 421 422 0 82 1 417 1 82 1 418 22 81 1 301 491 263 78 297 2
84 308 296 423 82 1 421 4 82 1 422 0 81 1 296 559 263 74 0 292 301 291 424 82 1
 423 3373 81 1 291 564 263 97 0 289 296 265 425 82 1 424 3219 81 1 265 568 263 6
4 293 282 291 260 426 82 1 425 3219 81 3 293 571 290 64 0 265 289 264 427 428 0
 82 1 426 3219 81 3 264 653 290 89 0 260 293 0 429 430 0 82 1 427 4 82 1 428 3 8
2 1 429 3 82 1 430 6 82 1 419 1 82 1 420 19 82 1 404 1319 79 23 381 SolidEdge/MN
KR_ATTR_CID83 3 359 .3960784673690795 .941176533699036 .450980424880981 82 1 356
 1319 83 3 351 .3960784673690795 .941176533699036 .450980424880981 82 1 347 1 82
 1 348 7 83 3 344 .3960784673690795 .941176533699036 .450980424880981 82 1 341 1
319 83 3 336 .3960784673690795 .941176533699036 .450980424880981 82 1 333 2859 8
3 3 330 .3960784673690795 .941176533699036 .450980424880981 82 1 327 1319 83 3 3
23 .3960784673690795 .941176533699036 .450980424880981 82 1 321 1319 83 3 317 .3
960784673690795 .941176533699036 .450980424880981 82 1 315 1319 83 3 310 .396078
4673690795 .941176533699036 .450980424880981 82 1 309 2859 80 5 283 431 432 9000
 2 2 2 2 3 5 0 0 0 FFFFTFFFFFFFFF1 1 2 3 7 82 1 302 5 82 19 303 0 0 0 0 0 0 3 0
 1 1 0 1 2 1 1 489 0 0 0 83 20 304 .008 .0127 .0127 82 .0127 .0127 0 .0508 2 0 0
 0 0 1 0 0 0 0 .1 .1 87 2 305 .0373566480446927 0 .004 1 0 0 79 30 432 SolidEdge
/StartHoleThread_info82 1 298 4 82 1 299 5 82 1 294 4 82 1 295 5 82 1 285 5 82 1
9 286 0 3 0 0 0 0 3 0 1 1 0 1 2 1 1 591 0 0 0 83 20 287 .008 .0127 .0127 82 .012
7 .0127 0 .0075 2 0 0 0 0 1 0 0 0 0 .1 .1 87 2 288 .0248566480446927 0 -.005 0 0
 -1 83 3 281 .3960784673690795 .941176533699036 .450980424880981 82 1 280 1319 8
0 1 274 433 434 9000 0 0 0 0 3 5 0 0 0 FFTTTTTTFFFFTF1 82 3 276 1 -2147483598 0
 79 16 434 SolidEdge/Styles82 1 273 2272 82 1 266 3442 79 17 262 SolidEdge/Displ
ay79 15 258 SDL/TYSA_COLOUR83 1 254 .0500000007450581 83 3 253 .3960784673690795
 .941176533699036 .450980424880981 83 3 249 .3960784673690795 .941176533699036 .
450980424880981 83 3 244 .3960784673690795 .941176533699036 .450980424880981 83
 3 240 .3960784673690795 .941176533699036 .450980424880981 79 21 236 SDL/TYSA_TR
ANSLUCENCY83 1 232 0 83 1 228 .0500000007450581 83 1 227 0 79 21 222 SDL/TYSA_RE
FLECTIVITY17 210 0 115 210 210 0 435 208 0 0 +15 115 222 0 210 103 0 17 435 0 43
6 435 435 0 210 208 0 0 -15 436 127 0 435 107 0 17 207 0 113 207 207 0 437 205 0
 0 +15 113 221 0 207 107 436 17 437 0 438 437 437 0 207 205 0 0 -15 438 122 0 43
7 112 0 17 204 0 120 204 204 0 439 202 0 0 +15 120 220 0 204 112 438 17 439 0 44
0 439 439 0 204 202 0 0 -15 440 112 0 439 119 0 17 201 0 124 201 201 0 441 194 0
 0 +15 124 218 0 201 119 440 17 441 0 442 441 441 0 201 194 0 0 -15 442 107 0 44
1 123 0 17 193 0 128 193 193 0 443 190 0 0 +15 128 217 0 193 123 442 17 443 0 18
3 443 443 0 193 190 0 0 -15 183 281 0 443 127 0 80 1 179 444 445 9000 0 0 0 0 3
 6 0 0 0 FFFFTFTTFFFFFF1 82 1 180 17 79 27 445 SolidEdge/MNKR_ATTR_TYPE_EX17 175
 0 79 175 175 0 446 171 0 0 +15 79 495 0 175 78 220 17 446 0 87 446 446 0 175 17
1 0 0 -15 87 463 0 446 17 0 16 76 545 0 ?447 65 0 173 0 0 1 17 447 0 159 447 447
 0 448 76 0 0 +15 159 536 0 447 155 35 17 448 0 98 448 448 0 447 76 0 0 -15 98 5
72 0 448 64 27 83 1 168 .0500000007450581 83 1 165 .0500000007450581 40 20 147 0
 1 20 .000354892430135078 .361708105692543 ??.03371194990171525 .008875742480358
9 -.005 .03224966545841335 .00866157575030448 -.005 .0307989811715782 .008946417
84408402 -.005 .02950453116752085 .00967795464045934 -.005 .02837981235594875 .0
108749980406127 -.005 .0275904820879111 .01252790050472308 -.005 .02736508674112
165 .014449756683991 -.005 .0278023936373054 .0163146898868189 -.005 .0288130657
772031 .01784004036278125 -.005 .0302172103554201 .0188678987686616 -.005 .03182
432356713865 .01933556567330845 -.005 .03345766290373315 .0192381360177075 -.005
 .03495812246470445 .0186099524836157 -.005 .03618503064150805 .0175164882642826
 -.005 .03701703130016465 .01605054501810395 -.005 .03735344402919105 .014331821
1942678 -.005 .0371182254594839 .01251239850474282 -.005 .0362757689596782 .0107
931955311594 -.005 .0348859144163494 .00944509825982721 -.005 .03371194990171525
 .0088757424803589 -.005 41 1 148 H.03371194990171525 .0088757424803589 -.005 17
 23 0 108 23 23 0 100 9 0 0 +17 100 0 91 100 100 0 23 9 0 0 -83 1 111 .050000000
7450581 83 1 106 .0500000007450581 83 1 96 .0500000007450581 17 29 0 27 25 60 57
 66 80 0 30 -19 18 1 0 1 0 8 4 S74 255 20 16 12 0 264 260 256 449 270 177 282 2
 268 252 94 90 0 0 0 0 0 0 0 0 81 2 449 236 450 1 0 451 0 0 452 453 80 2 450 11
 454 9000 2 2 2 2 3 6 0 0 0 FFTFFFFFFFFFFF2 3 81 3 451 655 11 1 449 455 0 455 45
6 457 458 83 2 452 1 27 84 19 453 SE 15.0.0.68 Type8680 3 11 290 459 9000 0 0 0
 0 3 6 0 0 0 FFTFFFFFFFFFFF3 3 1 81 3 455 656 11 1 451 12 451 12 460 461 462 84
 38 456 {517b5347-df30-4808-b555-e03a04dd7f11}84 2 457 SE82 1 458 0 81 3 12 657
 11 1 455 2 455 2 463 464 465 84 38 460 {bb279697-c506-40ad-9ead-42a95c0ee844}84
 2 461 SE82 1 462 1 84 38 463 {7a9fcb28-098e-47bd-abdf-05c4152cbe11}84 2 464 SE8
2 1 465 3 79 25 459 MONIKER/GUID_TABLE_ATTRIB79 22 454 MONIKER/BODY_ID_ATTRIB84
 38 13 {88a59830-90e1-4e99-a1a7-7e010f346295}84 2 14 SE82 1 15 4 1 0 
