**ABCDEFGHIJKLMNOPQRSTUVWXYZabcdefghijklmnopqrstuvwxyz**************************
**PARASOLID !"#$%&'()*+,-./:;<=>?@[\]^_`{|}~0123456789**************************
**PART1;
MC=ACURPCP;
MC_MODEL=unknown;
MC_ID=unknown;
OS=Windows NT;
OS_RELEASE=5.1;
FRU=Unigraphics Solutions;
APPL=SolidEdge;
SITE=Huntsville, AL;
USER=alainc
FORMAT=text;
GUISE=transmit;
KEY=C:\Documents and Settings\alainc.ACURPCP\Mes documents\Cours\GMC18750\Projets_labo\LaboCFAO\Guide MCam\MasterCamX\mill_test;
FILE=C:\Documents and Settings\alainc.ACURPCP\Mes documents\Cours\GMC18750\Projets_labo\LaboCFAO\Guide MCam\MasterCamX\mill_test.x_t;
DATE=lun., janv. 16 06;
**PART2;
SCH=SCH_1500204_15003;
USFLD_SIZE=0;
**PART3;
**END_OF_HEADER*****************************************************************
T51 : TRANSMIT FILE created by modeller version 150020423 SCH_1500204_15003_1300
6185 0 12 255 1 538 2 3 0 0 0 0 1e3 1e-8 0 0 0 1 0 1 1 4 5 6 7 8 9 10 81 255 3 2
 490 11 1 12 0 12 0 13 14 15 70 11 CI9 list_type0 0 1 uI10 notransmit0 0 1 lCCCD
CCDI12 finger_index0 0 1 dI12 finger_block1012 0 CZ3 0 4 T1 0 0 10 20 1 16 16 13
 255 4 3 0 1 0 17 0 0 18 0 50 255 5 81 0 19 20 0 0 +-.049343119266055 .050062385
3211009 -.0127 -1 0 0 0 0 1 31 255 6 209 0 9 21 0 0 -3361026734705065e-33 0 0 0
 0 1 1 0 0 .031 29 255 7 20 0 10 22 0 -.049343119266055 .0500623853211009 -.0127
 19 255 8 1 0 1 18 0 23 V16 255 9 206 0 ?24 0 25 6 0 0 1 18 255 10 17 0 26 0 27
 7 ?1 17 255 26 0 28 29 30 10 31 32 0 33 -18 27 11 0 34 10 35 22 ?1 17 34 0 36 3
3 37 27 38 39 0 40 -18 35 5 0 41 27 42 43 ?1 29 22 14 0 27 43 7 .050656880733945
 .0500623853211009 -.0127 29 43 8 0 35 44 22 .050656880733945 -.0499376146788991
 -.0127 29 44 4 0 42 45 43 -.049343119266055 -.0499376146788991 -.0127 18 42 2 0
 46 35 47 44 ?1 29 45 58 0 47 48 44 -.049343119266055 .0500623853211009 0 18 47
 49 0 31 42 49 45 ?1 29 48 59 0 49 50 45 .050656880733945 .0500623853211009 0 18
 49 50 0 38 47 51 48 ?1 29 50 60 0 51 52 48 .050656880733945 -.0499376146788991
 0 18 51 51 0 53 49 54 50 ?1 29 52 61 0 54 0 50 -.049343119266055 -.049937614678
8991 0 18 54 52 0 55 51 0 52 ?1 17 55 0 28 30 29 54 46 56 0 57 +15 255 28 72 0 3
0 19 0 17 30 0 28 26 55 47 58 59 0 0 -17 29 0 28 55 26 42 60 61 0 0 +17 46 0 62
 63 57 42 55 56 0 64 -16 56 65 0 ?55 25 65 66 0 0 1 17 57 0 62 46 53 54 67 68 0
 58 -15 62 70 0 57 69 0 17 53 0 62 57 63 51 41 65 0 70 +17 67 0 71 72 58 51 57 6
8 0 0 +16 68 43 73 ?67 74 59 75 0 0 1 17 58 0 71 67 76 54 30 59 0 0 +15 71 36 0
 58 77 0 17 76 0 71 58 72 47 37 78 0 30 +16 59 46 79 ?58 68 80 81 0 0 1 81 1 79
 48 82 59 0 0 73 83 84 16 80 123 0 ?85 59 86 87 0 0 1 30 255 81 54 0 59 88 89 0
 +-.049343119266055 .0500623853211009 0 0 -1 0 30 88 55 0 78 90 81 0 +.050656880
733945 .0500623853211009 0 -1 0 0 30 89 7 0 91 81 92 0 +-.049343119266055 -.0499
376146788991 -.0127 1 0 0 16 91 6 0 ?63 93 61 89 0 0 1 30 92 13 0 93 89 94 0 +.0
50656880733945 -.0499376146788991 -.0127 0 1 0 16 93 12 0 ?40 95 91 92 0 0 1 30
 94 19 0 95 92 96 0 +.050656880733945 .0500623853211009 -.0127 -1 0 0 16 95 18 0
 ?33 32 93 94 0 0 1 30 96 24 0 61 94 97 0 +-.049343119266055 .0500623853211009 -
.0127 0 -1 0 16 61 23 0 ?29 91 78 96 0 0 1 30 97 74 0 32 96 98 0 +-.049343119266
055 .0500623853211009 -.0127 0 0 1 16 32 62 0 ?31 39 95 97 0 0 1 30 98 75 0 39 9
7 99 0 +.050656880733945 .0500623853211009 -.0127 0 0 1 16 39 63 0 ?38 65 32 98
 0 0 1 30 99 76 0 65 98 66 0 +.050656880733945 -.0499376146788991 -.0127 0 0 1 1
6 65 64 0 ?53 56 39 99 0 0 1 30 66 77 0 56 99 21 0 +-.049343119266055 -.04993761
46788991 -.0127 0 0 1 31 21 202 0 25 66 6 0 +3361026734705065e-33 0 .006 0 0 1 1
 0 0 .025 16 25 199 0 ?100 9 56 21 0 0 1 17 100 0 101 100 100 0 102 25 0 0 +15 1
01 200 0 100 103 104 17 102 0 105 102 102 0 100 25 0 0 -15 105 222 0 102 106 0 1
4 255 106 220 107 ?108 109 110 4 111 -0 0 108 109 23 81 2 107 526 112 106 113 0
 114 115 116 0 14 108 266 115 ?117 106 118 4 119 -0 0 117 106 23 14 109 176 114
 ?106 120 121 4 122 -0 0 106 120 23 15 110 221 0 123 106 105 54 255 111 227 0 10
6 119 122 0 +3361026734705065e-33 0 .006 0 0 1 .031 .006 1 0 0 13 23 82 0 0 0 0
 0 0 8 17 14 17 134 124 ?19 0 125 4 126 -0 0 19 0 23 81 2 124 496 112 17 127 0 0
 128 129 0 14 19 73 128 ?69 17 28 4 5 +0 0 69 17 23 15 125 437 0 130 17 131 50 1
26 147 0 17 132 133 0 +3361026734705065e-33 0 .0127 0 0 -1 -1 0 0 51 255 132 188
 0 120 122 126 0 -3469446951953615e-33 0 -.0023 0 0 1 .0175 1 0 0 51 133 146 0 1
03 126 134 0 +3361026734705065e-33 0 .0127 0 0 -1 .025 -1 0 0 14 103 127 135 ?12
0 77 101 4 133 +0 0 120 77 23 50 134 53 0 77 133 136 0 +-.049343119266055 -.0499
376146788991 0 0 0 1 1 0 0 14 77 35 137 ?103 138 139 4 134 +0 0 103 138 23 50 13
6 29 0 138 134 140 0 +-.049343119266055 -.0499376146788991 -.0127 0 0 1 1 0 0 14
 138 26 141 ?77 142 143 4 136 -0 0 77 142 23 50 140 78 0 142 136 144 0 +.0506568
80733945 .0500623853211009 -.0127 0 1 0 0 0 1 14 142 67 145 ?138 146 36 4 140 +0
 0 138 146 23 50 144 79 0 146 140 20 0 +.050656880733945 -.0499376146788991 -.01
27 1 0 0 0 0 -1 14 146 69 147 ?142 69 148 4 144 +0 0 142 69 23 50 20 80 0 69 144
 5 0 +-.049343119266055 -.0499376146788991 -.0127 0 -1 0 0 0 -1 14 69 71 149 ?14
6 19 62 4 20 +0 0 146 19 23 81 2 149 502 112 69 150 0 128 147 151 0 80 255 2 112
 152 153 8014 0 0 0 0 3 5 0 0 0 FFFFTFFFFFFFFF2 1 81 1 150 501 154 69 155 149 15
6 157 158 81 2 128 499 112 19 156 0 124 149 159 0 81 2 147 505 112 146 157 0 149
 145 160 0 83 255 1 151 0 81 1 157 504 154 146 161 147 150 162 163 81 2 145 508
 112 142 162 0 147 141 164 0 83 1 160 0 81 1 162 507 154 142 165 145 157 166 167
 81 2 141 511 112 138 166 0 145 137 168 0 83 1 164 0 81 1 166 510 154 138 169 14
1 162 170 171 81 2 137 514 112 77 170 0 141 135 172 0 83 1 168 0 81 1 170 513 15
4 77 173 137 166 174 175 81 2 135 517 112 103 174 0 137 176 177 0 83 1 172 0 81
 1 174 516 154 103 178 135 170 179 180 81 2 176 520 112 120 179 0 135 114 181 0
 83 1 177 0 14 120 169 176 ?109 103 182 4 132 +0 0 109 103 23 81 1 179 519 154 1
20 183 176 174 184 185 81 2 114 523 112 109 184 0 176 107 186 0 83 1 181 0 81 1
 184 522 154 109 187 114 179 113 188 83 1 186 0 80 1 154 112 189 8015 0 0 0 0 3
 5 0 0 0 FFFFTFFFFFFFFF2 81 1 187 521 190 109 191 184 183 192 193 81 1 113 525 1
54 106 192 107 184 194 195 83 1 188 0 81 1 192 524 190 106 196 113 187 197 198 8
1 1 194 528 154 108 197 115 113 199 200 83 1 195 0 81 1 197 527 190 108 201 194
 192 202 203 81 2 115 529 112 108 194 0 107 204 205 0 81 1 199 531 154 117 202 2
04 194 206 207 83 1 200 0 14 117 331 204 ?208 108 209 4 210 -0 0 208 108 23 81 1
 202 530 190 117 211 199 197 212 213 81 2 204 532 112 117 199 0 115 214 215 0 81
 1 206 534 154 208 212 214 199 216 217 83 1 207 0 14 208 396 214 ?218 117 219 4
 220 -0 0 218 117 23 81 1 212 533 190 208 221 206 202 222 223 81 2 214 535 112 2
08 206 0 204 224 225 0 81 1 216 537 154 218 222 224 206 0 226 83 1 217 0 14 218
 461 224 ?0 208 227 4 228 -0 0 0 208 23 81 1 222 536 190 218 229 216 212 0 230 8
1 2 224 538 112 218 216 0 214 0 231 0 83 1 226 0 83 1 231 0 80 1 190 0 232 8001
 0 0 0 0 3 5 0 0 0 FFFFTFTFFFFFFF2 81 1 229 493 233 218 234 222 235 0 0 83 3 230
 .752941250801086 .752941250801086 .752941250801086 80 1 233 82 236 9000 1 1 1 1
 1 1 1 1 0 FFFFTFTTFFFFFF1 81 5 234 488 237 218 238 229 239 0 240 241 242 0 243
 81 1 235 492 233 138 244 169 245 229 0 81 1 244 87 246 138 247 235 0 248 249 81
 1 169 509 190 138 235 166 165 173 250 81 1 245 491 233 17 251 252 221 235 0 81
 3 251 163 253 17 254 245 255 256 257 258 0 81 1 252 494 190 17 245 127 0 259 26
0 81 1 221 428 233 208 239 212 211 245 0 81 5 239 423 237 208 261 221 262 234 26
3 264 265 0 266 81 1 211 363 233 117 262 202 201 221 0 81 5 262 358 237 117 267
 211 268 239 269 270 271 0 272 81 1 201 298 233 108 268 197 196 211 0 81 5 268 2
93 237 108 273 201 0 262 274 275 276 0 277 81 1 196 233 233 106 278 192 279 201
 0 81 1 278 229 246 106 280 196 281 273 282 81 1 279 232 233 103 283 178 284 196
 0 81 1 283 128 246 103 255 279 285 254 286 81 1 178 515 190 103 279 174 173 183
 287 81 1 284 231 233 77 248 173 191 279 0 81 1 248 90 246 77 288 284 244 289 29
0 81 1 173 512 190 77 284 170 169 178 291 81 1 191 196 233 109 281 187 292 284 0
 81 1 281 177 246 109 293 191 294 278 295 81 1 292 195 233 120 294 183 296 191 0
 81 1 294 170 246 120 256 292 254 281 297 81 1 183 518 190 120 292 179 178 187 2
98 81 1 296 111 233 142 289 165 299 292 0 81 1 289 94 246 142 300 296 248 301 30
2 81 1 165 506 190 142 296 162 161 169 303 81 1 299 110 233 146 301 161 304 296
 0 81 1 301 98 246 146 305 299 289 306 307 81 1 161 503 190 146 299 157 155 165
 308 81 1 304 109 233 69 306 155 309 299 0 81 1 306 102 246 69 310 304 301 285 3
11 81 1 155 500 190 69 304 150 259 161 312 81 1 309 108 233 19 285 259 0 304 0 8
1 1 285 106 246 19 313 309 306 283 314 81 1 259 497 190 19 309 156 252 155 315 8
1 1 156 498 154 19 259 128 127 150 316 83 3 315 .752941250801086 .75294125080108
6 .752941250801086 81 1 127 495 154 17 252 124 0 156 317 83 1 316 0 83 1 317 0 8
0 1 246 318 319 9000 0 0 0 0 3 6 0 0 0 FFFFTFFFFFFFFF1 81 3 313 103 253 19 0 285
 310 255 320 321 0 82 255 1 314 256 80 3 253 322 323 9000 0 0 0 0 3 6 0 0 0 FFFF
TFTTFFFFFF1 1 3 81 3 310 99 253 69 0 306 305 313 324 325 0 81 3 255 131 253 103
 0 283 313 251 326 327 0 82 1 320 0 82 1 321 5 82 1 326 0 82 1 327 8 81 3 305 95
 253 146 0 301 300 310 328 329 0 82 1 324 0 82 1 325 4 81 3 300 91 253 142 0 289
 288 305 330 331 0 82 1 328 0 82 1 329 3 81 3 288 88 253 77 0 248 247 300 332 33
3 0 82 1 330 0 82 1 331 2 81 3 247 84 253 138 0 244 0 288 334 335 0 82 1 332 0 8
2 1 333 1 82 1 334 0 82 1 335 0 79 255 27 323 MONIKER/MONIKER_DATA_ATTRIB79 23 3
19 SolidEdge/MNKR_ATTR_CID83 3 312 .752941250801086 .752941250801086 .7529412508
01086 82 1 311 256 83 3 308 .752941250801086 .752941250801086 .752941250801086 8
2 1 307 256 83 3 303 .752941250801086 .752941250801086 .752941250801086 82 1 302
 256 83 3 298 .752941250801086 .752941250801086 .752941250801086 81 3 256 173 25
3 120 0 294 251 293 336 337 0 81 1 254 162 246 17 0 251 283 294 338 82 1 297 416
 82 1 338 352 81 3 293 179 253 109 0 281 256 280 339 340 0 82 1 336 0 82 1 337 1
1 81 3 280 228 253 106 0 278 293 341 342 343 0 82 1 339 0 82 1 340 9 81 3 341 27
0 253 108 0 273 280 344 345 346 0 82 1 342 0 82 1 343 12 81 1 273 267 246 108 34
1 268 278 267 347 81 3 344 335 253 117 0 267 341 348 349 350 0 82 1 345 1 82 1 3
46 14 81 1 267 332 246 117 344 262 273 261 351 81 3 348 400 253 208 0 261 344 35
2 353 354 0 82 1 349 1 82 1 350 17 81 1 261 397 246 208 348 239 267 238 355 81 3
 352 465 253 218 0 238 348 0 356 357 0 82 1 353 1 82 1 354 20 81 1 238 462 246 2
18 352 234 261 0 358 82 1 356 1 82 1 357 23 82 1 358 1025 82 1 355 1024 82 1 351
 1023 82 1 347 1021 82 1 295 416 83 3 291 .752941250801086 .752941250801086 .752
941250801086 82 1 290 256 83 3 287 .752941250801086 .752941250801086 .7529412508
01086 82 1 286 352 82 1 282 426 80 5 237 359 360 9000 2 2 2 2 3 5 0 0 0 FFFFTFFF
FFFFFF1 1 2 3 7 82 1 274 5 82 19 275 0 1 0 0 0 0 3 0 1 0 0 1 2 1 1 266 0 0 0 83
 20 276 .005 .0127 .0127 82 .0127 .0127 0 .0508 2 0 0 0 0 1 0 0 0 0 .1 .1 87 255
 2 277 46075814062567e-31 .02125 .0127 0 0 1 79 28 360 SolidEdge/EndHoleThread_i
nfo82 1 269 5 82 19 270 0 1 0 0 0 0 3 0 1 0 0 1 2 1 1 331 0 0 0 83 20 271 .005 .
0127 .0127 82 .0127 .0127 0 .0508 2 0 0 0 0 1 0 0 0 0 .1 .1 87 2 272 .02125 0 .0
127 0 0 1 82 1 263 5 82 19 264 0 1 0 0 0 0 3 0 1 0 0 1 2 1 1 396 0 0 0 83 20 265
 .005 .0127 .0127 82 .0127 .0127 0 .0508 2 0 0 0 0 1 0 0 0 0 .1 .1 87 2 266 2005
292904384145e-33 -.02125 .0127 0 0 1 83 3 260 .752941250801086 .752941250801086
 .752941250801086 82 1 257 0 82 1 258 6 83 3 250 .752941250801086 .7529412508010
86 .752941250801086 82 1 249 256 82 1 240 5 82 19 241 0 1 0 0 0 0 3 0 1 0 0 1 2
 1 1 461 0 0 0 83 20 242 .005 .0127 .0127 82 .0127 .0127 0 .0508 2 0 0 0 0 1 0 0
 0 0 .1 .1 87 2 243 -.02125 0 .0127 0 0 1 79 17 236 SolidEdge/Display79 15 232 S
DL/TYSA_COLOUR15 227 466 0 361 218 362 51 228 480 0 218 0 220 0 +-.02125 0 -.130
9842371312872 0 0 1 .0025 1 0 0 51 220 415 0 208 228 210 0 +2005292904384145e-33
 -.02125 -.1309842371312872 0 0 1 .0025 1 0 0 51 210 350 0 117 220 119 0 +.02125
 0 -.1309842371312872 0 0 1 .0025 1 0 0 51 119 285 0 108 210 111 0 +460758140625
67e-31 .02125 -.1309842371312872 0 0 1 .0025 1 0 0 17 361 0 227 361 361 0 363 36
4 0 0 -15 362 467 0 365 218 0 17 365 0 362 365 365 0 130 366 0 0 +17 130 0 125 1
30 130 0 365 366 0 0 -16 366 450 367 ?365 364 0 368 0 0 1 81 1 367 453 82 366 0
 0 369 0 370 16 364 448 0 ?363 371 366 372 0 0 1 31 368 485 0 366 0 372 0 +-.021
25 0 .0127 0 0 1 0 1 0 .0025 31 372 483 0 364 368 373 0 +-.02125 0 -.0127 0 0 1
 1 0 0 .0025 31 373 420 0 371 372 374 0 +2005292904384145e-33 -.02125 .0127 0 0
 1 0 1 0 .0025 16 371 385 369 ?375 376 364 373 0 0 1 31 374 418 0 376 373 377 0
 +2005292904384145e-33 -.02125 -.0127 0 0 1 1 0 0 .0025 16 376 383 0 ?378 379 37
1 374 0 0 1 31 377 355 0 379 374 380 0 +.02125 0 .0127 0 0 1 0 1 0 .0025 16 379
 320 381 ?382 383 376 377 0 0 1 31 380 353 0 383 377 384 0 +.02125 0 -.0127 0 0
 1 1 0 0 .0025 16 383 318 0 ?385 386 379 380 0 0 1 31 384 290 0 386 380 387 0 +4
6075814062567e-31 .02125 .0127 0 0 1 0 1 0 .0025 16 386 255 388 ?389 390 383 384
 0 0 1 31 387 288 0 390 384 391 0 +46075814062567e-31 .02125 -.0127 0 0 1 1 0 0
 .0025 16 390 253 0 ?392 393 386 387 0 0 1 31 391 192 0 393 387 394 0 +346944695
1953615e-33 0 .0127 0 0 -1 0 1 0 .0175 16 393 165 83 ?395 86 390 391 0 0 1 31 39
4 191 0 86 391 87 0 +3469446951953615e-33 0 -.0023 0 0 -1 0 1 0 .0175 16 86 168
 0 ?396 80 393 394 0 0 1 31 87 149 0 80 394 75 0 +3361026734705065e-33 0 .0127 0
 0 -1 0 1 0 .025 30 75 57 0 68 87 90 0 +-.049343119266055 -.0499376146788991 0 1
 0 0 30 90 56 0 74 75 88 0 +.050656880733945 -.0499376146788991 0 0 1 0 16 74 40
 397 ?72 78 68 90 0 0 1 81 1 397 42 82 74 0 0 398 73 399 17 72 0 71 76 67 49 70
 74 0 0 +16 78 37 398 ?76 61 74 88 0 0 1 81 1 398 39 82 78 0 0 0 397 400 80 1 82
 401 402 9000 0 0 0 0 3 6 0 0 0 FFFFTFTTFFFFFF1 82 1 400 17 79 27 402 SolidEdge/
MNKR_ATTR_TYPE_EX17 70 0 148 41 38 51 72 74 0 67 -15 148 68 0 70 146 0 17 41 0 1
48 40 70 35 53 65 0 63 -17 38 0 148 70 40 49 34 39 0 37 +17 40 0 148 38 41 27 40
3 93 0 404 +17 37 0 36 34 31 49 76 78 0 72 -15 36 66 0 37 142 0 17 31 0 36 37 33
 47 26 32 0 76 +17 33 0 36 31 34 10 404 95 0 60 +17 404 0 405 403 60 27 33 95 0
 0 -17 60 0 405 404 64 10 29 61 0 0 -15 405 25 0 60 138 0 17 64 0 405 60 403 42
 63 91 0 29 -17 403 0 405 64 404 35 40 93 0 0 -17 63 0 62 53 46 35 64 91 0 403 +
81 1 73 45 82 68 0 0 397 79 406 82 1 399 17 82 1 406 17 17 396 0 182 396 396 0 4
07 86 0 0 +15 182 174 0 396 120 408 17 407 0 121 407 407 0 396 86 0 0 -15 121 18
0 0 407 109 0 15 408 175 0 409 120 0 17 409 0 408 409 409 0 395 393 0 0 -17 395
 0 410 395 395 0 409 393 0 0 +15 410 159 0 395 17 0 81 1 83 167 82 393 0 0 79 38
8 411 81 1 388 258 82 386 0 0 83 381 412 82 1 411 17 81 1 381 323 82 379 0 0 388
 369 413 82 1 412 17 81 1 369 388 82 371 0 0 381 367 414 82 1 413 17 82 1 414 17
 17 392 0 415 392 392 0 416 390 0 0 +15 415 235 0 392 138 405 17 416 0 118 416 4
16 0 392 390 0 0 -15 118 271 0 416 108 417 15 417 272 0 389 108 0 17 389 0 417 3
89 389 0 418 386 0 0 +17 418 0 419 418 418 0 389 386 0 0 -15 419 242 0 418 17 42
0 15 420 138 0 421 17 410 17 421 0 420 421 421 0 85 80 0 0 -17 85 0 104 85 85 0
 421 80 0 0 +15 104 132 0 85 103 0 17 385 0 422 385 385 0 423 383 0 0 +15 422 30
0 0 385 138 415 17 423 0 209 423 423 0 385 383 0 0 -15 209 336 0 423 117 424 15
 424 337 0 382 117 0 17 382 0 424 382 382 0 425 379 0 0 +17 425 0 426 425 425 0
 382 379 0 0 -15 426 307 0 425 17 419 17 378 0 427 378 378 0 428 376 0 0 +15 427
 365 0 378 138 422 17 428 0 219 428 428 0 378 376 0 0 -15 219 401 0 428 208 429
 15 429 402 0 375 208 0 17 375 0 429 375 375 0 430 371 0 0 +17 430 0 131 430 430
 0 375 371 0 0 -15 131 372 0 430 17 426 17 363 0 143 363 363 0 361 364 0 0 +15 1
43 430 0 363 138 427 82 1 370 17 83 1 225 0 83 3 223 .752941250801086 .752941250
801086 .752941250801086 83 1 215 0 83 3 213 .752941250801086 .752941250801086 .7
52941250801086 83 1 205 0 83 3 203 .752941250801086 .752941250801086 .7529412508
01086 83 3 198 .752941250801086 .752941250801086 .752941250801086 83 3 193 .7529
41250801086 .752941250801086 .752941250801086 79 21 189 SDL/TYSA_TRANSLUCENCY83
 1 185 0 83 1 180 0 83 1 175 0 83 1 171 0 83 1 167 0 83 1 163 0 83 1 159 0 83 1
 158 0 79 21 153 SDL/TYSA_REFLECTIVITY15 139 207 0 24 77 71 17 24 0 139 24 24 0
 123 9 0 0 +17 123 0 110 123 123 0 24 9 0 0 -50 122 189 0 109 111 132 0 +3469446
951953615e-33 0 -.0023 0 0 -1 -1 0 0 83 1 129 0 83 1 116 0 82 1 84 17 19 18 83 0
 1 0 8 4 S74 255 20 16 10 0 367 352 238 229 431 234 2 222 216 224 0 0 0 0 0 0 0
 0 0 0 81 2 431 114 432 1 0 12 0 0 433 434 80 2 432 11 435 9000 2 2 2 2 3 6 0 0
 0 FFTFFFFFFFFFFF2 3 81 3 12 489 11 1 431 2 0 2 436 437 438 83 2 433 1 20 84 255
 19 434 SE 15.0.0.68 Type8680 3 11 253 439 9000 0 0 0 0 3 6 0 0 0 FFTFFFFFFFFFFF
3 3 1 84 38 436 {378418dc-22d9-4001-8cc0-d9864428325b}84 2 437 SE82 1 438 0 79 2
5 439 MONIKER/GUID_TABLE_ATTRIB79 22 435 MONIKER/BODY_ID_ATTRIB84 38 13 {383e493
5-c659-43e9-8e90-6bbc2e887d7d}84 2 14 SE82 1 15 1 1 0 
